<svg id="visual" viewBox="0 0 900 600" width="900" height="600" xmlns="http://www.w3.org/2000/svg" xmlns:xlink="http://www.w3.org/1999/xlink" version="1.1"><path d="M0 22L12.5 20.8C25 19.7 50 17.3 75 19.2C100 21 125 27 150 31.5C175 36 200 39 225 36.3C250 33.7 275 25.3 300 23C325 20.7 350 24.3 375 26.2C400 28 425 28 450 30.3C475 32.7 500 37.3 525 38.8C550 40.3 575 38.7 600 38.3C625 38 650 39 675 37.5C700 36 725 32 750 31.8C775 31.7 800 35.3 825 37.8C850 40.3 875 41.7 887.5 42.3L900 43L900 0L887.5 0C875 0 850 0 825 0C800 0 775 0 750 0C725 0 700 0 675 0C650 0 625 0 600 0C575 0 550 0 525 0C500 0 475 0 450 0C425 0 400 0 375 0C350 0 325 0 300 0C275 0 250 0 225 0C200 0 175 0 150 0C125 0 100 0 75 0C50 0 25 0 12.5 0L0 0Z" fill="#152a46" stroke-linecap="round" stroke-linejoin="miter"></path></svg>