<svg id="visual" viewBox="0 0 900 600" width="900" height="600" xmlns="http://www.w3.org/2000/svg" xmlns:xlink="http://www.w3.org/1999/xlink" version="1.1"><path d="M0 576L12.5 577.2C25 578.3 50 580.7 75 578.8C100 577 125 571 150 566.5C175 562 200 559 225 561.7C250 564.3 275 572.7 300 575C325 577.3 350 573.7 375 571.8C400 570 425 570 450 567.7C475 565.3 500 560.7 525 559.2C550 557.7 575 559.3 600 559.7C625 560 650 559 675 560.5C700 562 725 566 750 566.2C775 566.3 800 562.7 825 560.2C850 557.7 875 556.3 887.5 555.7L900 555L900 601L887.5 601C875 601 850 601 825 601C800 601 775 601 750 601C725 601 700 601 675 601C650 601 625 601 600 601C575 601 550 601 525 601C500 601 475 601 450 601C425 601 400 601 375 601C350 601 325 601 300 601C275 601 250 601 225 601C200 601 175 601 150 601C125 601 100 601 75 601C50 601 25 601 12.5 601L0 601Z" fill="#152a46" stroke-linecap="round" stroke-linejoin="miter"></path></svg>